<?xml version="1.0" encoding="us-ascii" standalone="no"?><svg xmlns="http://www.w3.org/2000/svg" xmlns:xlink="http://www.w3.org/1999/xlink" contentStyleType="text/css" height="628px" preserveAspectRatio="none" style="width:537px;height:628px;background:#FFFFFF;" version="1.1" viewBox="0 0 537 628" width="537px" zoomAndPan="magnify"><defs/><g><text fill="#000000" font-family="sans-serif" font-size="14" font-weight="bold" lengthAdjust="spacing" textLength="236" x="143.7446" y="23.5352">&#53076;&#51064; &#51088;&#46041;&#47588;&#47588; &#49884;&#49828;&#53596; - Infrastructure</text><!--cluster ??? ??\nPrivate IP: 192.168.x.x--><g id="cluster_&#45432;&#53944;&#48513; &#49436;&#48260;\nPrivate IP: 192.168.x.x"><polygon fill="none" points="16,208.9583,26,198.9583,347,198.9583,347,601.9383,337,611.9383,16,611.9383,16,208.9583" style="stroke:#181818;stroke-width:1.0;"/><line style="stroke:#181818;stroke-width:1.0;" x1="337" x2="347" y1="208.9583" y2="198.9583"/><line style="stroke:#181818;stroke-width:1.0;" x1="16" x2="337" y1="208.9583" y2="208.9583"/><line style="stroke:#181818;stroke-width:1.0;" x1="337" x2="337" y1="208.9583" y2="611.9383"/><text fill="#000000" font-family="sans-serif" font-size="14" font-weight="bold" lengthAdjust="spacing" textLength="65" x="145" y="225.4934">&#45432;&#53944;&#48513; &#49436;&#48260;</text><text fill="#000000" font-family="sans-serif" font-size="14" font-weight="bold" lengthAdjust="spacing" textLength="156" x="99.5" y="241.9817">Private IP: 192.168.x.x</text></g><!--cluster Docker Engine--><g id="cluster_Docker Engine"><polygon fill="none" points="40,272.9583,50,262.9583,323,262.9583,323,577.9383,313,587.9383,40,587.9383,40,272.9583" style="stroke:#181818;stroke-width:1.0;"/><line style="stroke:#181818;stroke-width:1.0;" x1="313" x2="323" y1="272.9583" y2="262.9583"/><line style="stroke:#181818;stroke-width:1.0;" x1="40" x2="313" y1="272.9583" y2="272.9583"/><line style="stroke:#181818;stroke-width:1.0;" x1="313" x2="313" y1="272.9583" y2="587.9383"/><text fill="#000000" font-family="sans-serif" font-size="14" font-weight="bold" lengthAdjust="spacing" textLength="103" x="126" y="289.4934">Docker Engine</text></g><!--cluster Spring Boot Container--><g id="cluster_Spring Boot Container"><polygon fill="none" points="64,320.9583,74,310.9583,299,310.9583,299,403.4483,289,413.4483,64,413.4483,64,320.9583" style="stroke:#181818;stroke-width:1.0;"/><line style="stroke:#181818;stroke-width:1.0;" x1="289" x2="299" y1="320.9583" y2="310.9583"/><line style="stroke:#181818;stroke-width:1.0;" x1="64" x2="289" y1="320.9583" y2="320.9583"/><line style="stroke:#181818;stroke-width:1.0;" x1="289" x2="289" y1="320.9583" y2="413.4483"/><text fill="#000000" font-family="sans-serif" font-size="14" font-weight="bold" lengthAdjust="spacing" textLength="159" x="98" y="337.4934">Spring Boot Container</text></g><!--cluster MariaDB Container--><g id="cluster_MariaDB Container"><polygon fill="none" points="76,472.4483,86,462.4483,287,462.4483,287,553.9383,277,563.9383,76,563.9383,76,472.4483" style="stroke:#181818;stroke-width:1.0;"/><line style="stroke:#181818;stroke-width:1.0;" x1="277" x2="287" y1="472.4483" y2="462.4483"/><line style="stroke:#181818;stroke-width:1.0;" x1="76" x2="277" y1="472.4483" y2="472.4483"/><line style="stroke:#181818;stroke-width:1.0;" x1="277" x2="277" y1="472.4483" y2="563.9383"/><text fill="#000000" font-family="sans-serif" font-size="14" font-weight="bold" lengthAdjust="spacing" textLength="135" x="110" y="488.9834">MariaDB Container</text></g><!--entity Auto Trading Service--><g id="elem_Auto Trading Service"><rect fill="#F1F1F1" height="46.4883" rx="2.5" ry="2.5" style="stroke:#181818;stroke-width:0.5;" width="183" x="99.5" y="350.9583"/><rect fill="#F1F1F1" height="10" style="stroke:#181818;stroke-width:0.5;" width="15" x="262.5" y="355.9583"/><rect fill="#F1F1F1" height="2" style="stroke:#181818;stroke-width:0.5;" width="4" x="260.5" y="357.9583"/><rect fill="#F1F1F1" height="2" style="stroke:#181818;stroke-width:0.5;" width="4" x="260.5" y="361.9583"/><text fill="#000000" font-family="sans-serif" font-size="14" lengthAdjust="spacing" textLength="143" x="114.5" y="384.4934">Auto Trading Service</text></g><!--entity Trading DB--><g id="elem_Trading DB"><path d="M143,512.4483 C143,502.4483 191,502.4483 191,502.4483 C191,502.4483 239,502.4483 239,512.4483 L239,537.9366 C239,547.9366 191,547.9366 191,547.9366 C191,547.9366 143,547.9366 143,537.9366 L143,512.4483 " fill="#F1F1F1" style="stroke:#181818;stroke-width:0.5;"/><path d="M143,512.4483 C143,522.4483 191,522.4483 191,522.4483 C191,522.4483 239,522.4483 239,512.4483 " fill="none" style="stroke:#181818;stroke-width:0.5;"/><text fill="#000000" font-family="sans-serif" font-size="14" lengthAdjust="spacing" textLength="76" x="153" y="539.9834">Trading DB</text></g><!--entity User--><g id="elem_User"><ellipse cx="191" cy="51.4883" fill="#F1F1F1" rx="8" ry="8" style="stroke:#181818;stroke-width:0.5;"/><path d="M191,59.4883 L191,86.4883 M178,67.4883 L204,67.4883 M191,86.4883 L178,101.4883 M191,86.4883 L204,101.4883 " fill="none" style="stroke:#181818;stroke-width:0.5;"/><text fill="#000000" font-family="sans-serif" font-size="14" lengthAdjust="spacing" textLength="36" x="148" y="116.5234">&#49324;&#50857;&#51088;</text><text fill="#000000" font-family="sans-serif" font-size="14" lengthAdjust="spacing" textLength="86" x="148" y="133.0117">(&#49324;&#49444; &#45348;&#53944;&#50892;&#53356;)</text></g><!--entity ByBit Exchange API--><g id="elem_ByBit Exchange API"><path d="M370.9423,511.3515 C373.8615,506.3614 379.6274,506.3853 382.7674,511.082 C386.4613,505.1494 390.8407,504.9034 394.6729,510.9444 C396.8947,503.6765 403.3235,504.2728 407.3723,509.012 C410.536,502.746 416.5349,502.521 420.1886,508.4992 C423.2829,503.163 427.627,503.318 430.8545,508.3624 C433.447,502.7552 439.4782,500.5653 443.5506,506.7718 C447.141,500.9473 452.8992,500.3792 456.0192,507.2344 C460.1215,502.854 465.2426,504.0968 467.4535,509.4552 C470.799,504.013 476.0347,504.108 478.787,510.0459 C482.1757,504.1387 487.1998,505.8127 490.1066,510.558 C494.0132,505.6494 498.0237,505.0196 502.073,510.3919 C505.7386,505.3568 509.9498,504.1071 513.9404,510.0402 C524.7582,510.0131 530.4891,516.4137 524.7743,526.9678 C527.4775,535.7774 524.9272,541.5353 514.6249,540.8074 C511.4313,547.0279 506.0345,547.847 501.7143,542.014 C499.0322,548.7617 494.0537,549.6621 489.708,543.5696 C487.9465,548.9035 483.4521,549.5592 479.7334,545.6911 C476.5819,551.8031 472.0491,554.1361 466.7897,547.9009 C463.5999,554.4366 457.3693,553.4718 454.2922,547.7856 C452.3258,554.7089 446.7576,555.5207 442.0903,550.5583 C437.9445,555.57 434.5921,554.1812 431.585,549.3438 C426.378,554.4616 420.1664,554.0359 418.2992,545.9765 C415.6764,550.4144 410.6465,551.2794 408.1537,545.8429 C404.181,551.6439 398.7504,550.4921 396.0197,544.5586 C390.6128,549.4351 385.3984,549.3271 382.5064,541.8153 C378.6023,547.151 374.3333,547.1552 370.6045,541.6234 C362.5076,539.9024 360.7897,533.4767 365.478,527.2087 C358.6385,519.9309 362.4818,513.357 370.9423,511.3515 " fill="#F1F1F1" style="stroke:#181818;stroke-width:0.5;"/><text fill="#000000" font-family="sans-serif" font-size="14" lengthAdjust="spacing" textLength="129" x="377.5" y="530.4834">ByBit Exchange API</text></g><!--link User to Auto Trading Service--><g id="link_User_Auto Trading Service"><path d="M191,136.2183 C191,197.6383 191,298.3983 191,344.7083 " fill="none" id="User-to-Auto Trading Service" style="stroke:#181818;stroke-width:1.0;"/><polygon fill="#181818" points="191,350.7083,195,341.7083,191,345.7083,187,341.7083,191,350.7083" style="stroke:#181818;stroke-width:1.0;"/><text fill="#000000" font-family="sans-serif" font-size="13" lengthAdjust="spacing" textLength="150" x="192" y="179.5266">HTTP (Internal Network)</text></g><!--link Auto Trading Service to Trading DB--><g id="link_Auto Trading Service_Trading DB"><path d="M191,397.8383 C191,426.1583 191,468.3583 191,496.3283 " fill="none" id="Auto Trading Service-to-Trading DB" style="stroke:#181818;stroke-width:1.0;"/><polygon fill="#181818" points="191,502.3283,195,493.3283,191,497.3283,187,493.3283,191,502.3283" style="stroke:#181818;stroke-width:1.0;"/><text fill="#000000" font-family="sans-serif" font-size="13" lengthAdjust="spacing" textLength="77" x="192" y="443.0166">Read / Write</text></g><!--link Auto Trading Service to ByBit Exchange API--><g id="link_Auto Trading Service_ByBit Exchange API"><path d="M229.12,397.8383 C276.44,425.9183 351.4805,470.4657 398.7705,498.5357 " fill="none" id="Auto Trading Service-to-ByBit Exchange API" style="stroke:#181818;stroke-width:1.0;"/><polygon fill="#181818" points="403.93,501.5983,398.2324,493.5648,399.6304,499.0462,394.149,500.4441,403.93,501.5983" style="stroke:#181818;stroke-width:1.0;"/><text fill="#000000" font-family="sans-serif" font-size="13" lengthAdjust="spacing" textLength="126" x="309.97" y="443.0166">Account / Order API</text></g><!--SRC=[VP0nImCn68Rt_8gFJEtGbZg8TX1wjk0Dwc4hBbrYBjRGcfHShbR4eN9Tgg23YrgT3aJev21T_4MN_WTp5ciHwqS88U_xFhnyckis0_DnPvucO9vlavlxv2Ms1ypLo0pZwM04EN35aIA1LY7LeM884Qgb0cmkn-RXrQOQ8fE-enYIA9uE9-RnUjeVPp6G0FO3fX0IqcU0ay74gibx7qmqIjwYXl0KxnBDmFLAK5nVoHTNr_AzV0_3EK9WPvQhIDfY2ggYoGMRQpzwhQEuQ88ZfOPDAJInDfNwO66eFEb8mOG6N0wrXBeYVfggCTNbbE6v-U8tVfieJYhEShHFD3aaWRL-GolE8czsMovjoz07x9mvN4ErHu-9Q38eUov6A5qKv78RI-f12RRgTGyohj1C2TA67QPFfMfb4LgI-88jDBA8FKPyAC21ufhz6_kZeesNAPMXtM01TfLlwzflz0a0]--></g></svg>